{
  "asset": {
    "generator": "Khronos glTF Blender I/O v5.1.19",
    "version": "2.0"
  },
  "extensionsUsed": [
    "KHR_materials_emissive_strength",
    "KHR_materials_specular",
    "KHR_materials_ior",
    "KHR_texture_transform"
  ],
  "extensionsRequired": [
    "KHR_texture_transform"
  ],
  "scene": 0,
  "scenes": [
    {
      "name": "Scene",
      "nodes": [
        0,
        1,
        2,
        3,
        4,
        5,
        6,
        7,
        8,
        9,
        10,
        11,
        12,
        13,
        14,
        15,
        16,
        17,
        18,
        19,
        20,
        21,
        22
      ]
    }
  ],
  "nodes": [
    {
      "mesh": 0,
      "name": "San_TonCao"
    },
    {
      "mesh": 1,
      "name": "Nen_Dat"
    },
    {
      "mesh": 2,
      "name": "Tuong_Tay"
    },
    {
      "mesh": 3,
      "name": "Tuong_Dong"
    },
    {
      "mesh": 4,
      "name": "Tuong_Nam_Trai"
    },
    {
      "mesh": 5,
      "name": "Tuong_Nam_Phai"
    },
    {
      "mesh": 6,
      "name": "Tuong_Nam_TrenCua"
    },
    {
      "mesh": 7,
      "name": "Tuong_Bac_Trai"
    },
    {
      "mesh": 8,
      "name": "Tuong_Bac_Phai"
    },
    {
      "mesh": 9,
      "name": "Tuong_Bac_TrenCua"
    },
    {
      "mesh": 10,
      "name": "CotCai_TamLinh",
      "scale": [
        1.6666666269302368,
        1,
        1.6666666269302368
      ],
      "translation": [
        12.5,
        4.050000190734863,
        -20
      ]
    },
    {
      "mesh": 11,
      "name": "Tran_Cong_Thuyen_Up"
    },
    {
      "mesh": 12,
      "name": "Tham_khanhtiet",
      "translation": [
        12.5,
        0.2999943792819977,
        -7.000538349151611
      ]
    },
    {
      "mesh": 13,
      "name": "LT_Vach_Do",
      "translation": [
        12.770283699035645,
        0.30000001192092896,
        -9.940542221069336
      ]
    },
    {
      "mesh": 14,
      "name": "LT_Vach_Xam_P",
      "translation": [
        14.670801162719727,
        0.3000001609325409,
        -9.927273750305176
      ]
    },
    {
      "mesh": 15,
      "name": "LT_Vien_T",
      "translation": [
        10.596940040588379,
        0.30000004172325134,
        -9.931785583496094
      ]
    },
    {
      "mesh": 16,
      "name": "LT_Vien_P",
      "translation": [
        14.462420463562012,
        0.30000001192092896,
        -9.939644813537598
      ]
    },
    {
      "mesh": 17,
      "name": "LT_Vach_Xam_T",
      "translation": [
        10.405016899108887,
        0.3000001609325409,
        -9.927273750305176
      ]
    },
    {
      "mesh": 18,
      "name": "LT_Text_Line1",
      "rotation": [
        0.7071068286895752,
        0,
        0,
        0.7071068286895752
      ],
      "translation": [
        12.5,
        3.999999761581421,
        -9.829999923706055
      ]
    },
    {
      "mesh": 19,
      "name": "LT_Text_Line2",
      "rotation": [
        0.7071068286895752,
        0,
        0,
        0.7071068286895752
      ],
      "translation": [
        12.5,
        3.429999828338623,
        -9.829999923706055
      ]
    },
    {
      "mesh": 20,
      "name": "LT_Text_Line3",
      "rotation": [
        0.7071068286895752,
        0,
        0,
        0.7071068286895752
      ],
      "translation": [
        12.5,
        2.8499996662139893,
        -9.829999923706055
      ]
    },
    {
      "mesh": 21,
      "name": "LT_LED_ChanChu",
      "scale": [
        6.083329677581787,
        1,
        1
      ],
      "translation": [
        12.499100685119629,
        0.3099997043609619,
        -9.852150917053223
      ]
    },
    {
      "mesh": 22,
      "name": "LT_LED_ChanTuong",
      "translation": [
        0,
        -1.0499999523162842,
        0
      ]
    }
  ],
  "materials": [
    {
      "doubleSided": true,
      "name": "Parquet Wood Floor Dark Brown",
      "normalTexture": {
        "extensions": {
          "KHR_texture_transform": {
            "offset": [
              0,
              -3
            ],
            "scale": [
              4,
              4
            ]
          }
        },
        "index": 0,
        "texCoord": 1
      },
      "pbrMetallicRoughness": {
        "baseColorTexture": {
          "index": 1,
          "texCoord": 1
        },
        "metallicFactor": 0,
        "metallicRoughnessTexture": {
          "index": 2,
          "texCoord": 1
        }
      }
    },
    {
      "doubleSided": true,
      "name": "M_Ground",
      "pbrMetallicRoughness": {
        "baseColorFactor": [
          0.30000001192092896,
          0.25,
          0.18000000715255737,
          1
        ],
        "metallicFactor": 0,
        "roughnessFactor": 0.8999999761581421
      }
    },
    {
      "doubleSided": true,
      "name": "M_Wall_Wood",
      "pbrMetallicRoughness": {
        "baseColorFactor": [
          0.550000011920929,
          0.3799999952316284,
          0.2199999988079071,
          1
        ],
        "metallicFactor": 0,
        "roughnessFactor": 0.6499999761581421
      }
    },
    {
      "doubleSided": true,
      "extensions": {
        "KHR_materials_specular": {
          "specularTexture": {
            "index": 3,
            "texCoord": 1
          }
        }
      },
      "name": "Wood.006",
      "normalTexture": {
        "index": 4,
        "texCoord": 1
      },
      "pbrMetallicRoughness": {
        "baseColorTexture": {
          "index": 5,
          "texCoord": 1
        },
        "metallicFactor": 0,
        "metallicRoughnessTexture": {
          "index": 6,
          "texCoord": 1
        }
      }
    },
    {
      "doubleSided": true,
      "name": "M_Ceiling_Wood",
      "pbrMetallicRoughness": {
        "baseColorFactor": [
          0.3499999940395355,
          0.2199999988079071,
          0.11999999731779099,
          1
        ],
        "metallicFactor": 0,
        "roughnessFactor": 0.6000000238418579
      }
    },
    {
      "doubleSided": true,
      "extensions": {
        "KHR_materials_specular": {
          "specularFactor": 0
        },
        "KHR_materials_ior": {
          "ior": 1.4500000476837158
        }
      },
      "name": "Red Denim Fabric",
      "normalTexture": {
        "index": 7,
        "texCoord": 1
      },
      "pbrMetallicRoughness": {
        "baseColorTexture": {
          "index": 8,
          "texCoord": 1
        },
        "metallicFactor": 0,
        "metallicRoughnessTexture": {
          "index": 9,
          "texCoord": 1
        }
      }
    },
    {
      "doubleSided": true,
      "extensions": {
        "KHR_materials_specular": {
          "specularFactor": 0
        },
        "KHR_materials_ior": {
          "ior": 1.4500000476837158
        }
      },
      "name": "Knitted Red Fabric",
      "normalTexture": {
        "index": 10,
        "texCoord": 1
      },
      "pbrMetallicRoughness": {
        "baseColorTexture": {
          "index": 11,
          "texCoord": 1
        },
        "metallicFactor": 0,
        "metallicRoughnessTexture": {
          "index": 12,
          "texCoord": 1
        }
      }
    },
    {
      "doubleSided": true,
      "name": "Stone wall",
      "normalTexture": {
        "index": 13,
        "scale": 3,
        "texCoord": 1
      },
      "pbrMetallicRoughness": {
        "baseColorTexture": {
          "index": 14,
          "texCoord": 1
        },
        "metallicFactor": 0,
        "metallicRoughnessTexture": {
          "index": 15,
          "texCoord": 1
        }
      }
    },
    {
      "doubleSided": true,
      "name": "Dark wood",
      "normalTexture": {
        "index": 16,
        "texCoord": 1
      },
      "pbrMetallicRoughness": {
        "baseColorTexture": {
          "index": 17,
          "texCoord": 1
        },
        "metallicFactor": 0,
        "metallicRoughnessTexture": {
          "index": 18,
          "texCoord": 1
        }
      }
    },
    {
      "doubleSided": true,
      "name": "Stone wall.001",
      "normalTexture": {
        "index": 19,
        "scale": 3,
        "texCoord": 1
      },
      "pbrMetallicRoughness": {
        "baseColorTexture": {
          "index": 20,
          "texCoord": 1
        },
        "metallicFactor": 0,
        "metallicRoughnessTexture": {
          "index": 21,
          "texCoord": 1
        }
      }
    },
    {
      "doubleSided": true,
      "name": "M_LT_TextGold",
      "pbrMetallicRoughness": {
        "baseColorFactor": [
          0.9200000166893005,
          0.75,
          0.20000000298023224,
          1
        ],
        "metallicFactor": 0.800000011920929,
        "roughnessFactor": 0.25
      }
    },
    {
      "doubleSided": true,
      "emissiveFactor": [
        1,
        0.949838399887085,
        0.8083376884460449
      ],
      "extensions": {
        "KHR_materials_emissive_strength": {
          "emissiveStrength": 39.5
        }
      },
      "name": "M_LT_LED_Warm",
      "pbrMetallicRoughness": {
        "baseColorFactor": [
          0,
          0,
          0,
          1
        ]
      }
    },
    {
      "doubleSided": true,
      "emissiveFactor": [
        1,
        0.8500000238418579,
        0.550000011920929
      ],
      "extensions": {
        "KHR_materials_emissive_strength": {
          "emissiveStrength": 8
        }
      },
      "name": "M_LT_LED_Warm.001",
      "pbrMetallicRoughness": {
        "baseColorFactor": [
          0,
          0,
          0,
          1
        ]
      }
    }
  ],
  "meshes": [
    {
      "name": "Cube",
      "primitives": [
        {
          "attributes": {
            "POSITION": 0,
            "NORMAL": 1,
            "TEXCOORD_0": 2,
            "TEXCOORD_1": 3
          },
          "indices": 4,
          "material": 0
        }
      ]
    },
    {
      "name": "Plane",
      "primitives": [
        {
          "attributes": {
            "POSITION": 5,
            "NORMAL": 6,
            "TEXCOORD_0": 7
          },
          "indices": 8,
          "material": 1
        }
      ]
    },
    {
      "name": "Cube.001",
      "primitives": [
        {
          "attributes": {
            "POSITION": 9,
            "NORMAL": 10,
            "TEXCOORD_0": 11
          },
          "indices": 4,
          "material": 2
        }
      ]
    },
    {
      "name": "Cube.002",
      "primitives": [
        {
          "attributes": {
            "POSITION": 12,
            "NORMAL": 13,
            "TEXCOORD_0": 14
          },
          "indices": 4,
          "material": 2
        }
      ]
    },
    {
      "name": "Cube.003",
      "primitives": [
        {
          "attributes": {
            "POSITION": 15,
            "NORMAL": 16,
            "TEXCOORD_0": 17
          },
          "indices": 4,
          "material": 2
        }
      ]
    },
    {
      "name": "Cube.004",
      "primitives": [
        {
          "attributes": {
            "POSITION": 18,
            "NORMAL": 19,
            "TEXCOORD_0": 20
          },
          "indices": 4,
          "material": 2
        }
      ]
    },
    {
      "name": "Cube.005",
      "primitives": [
        {
          "attributes": {
            "POSITION": 21,
            "NORMAL": 22,
            "TEXCOORD_0": 23
          },
          "indices": 4,
          "material": 2
        }
      ]
    },
    {
      "name": "Cube.006",
      "primitives": [
        {
          "attributes": {
            "POSITION": 24,
            "NORMAL": 25,
            "TEXCOORD_0": 26
          },
          "indices": 4,
          "material": 2
        }
      ]
    },
    {
      "name": "Cube.007",
      "primitives": [
        {
          "attributes": {
            "POSITION": 27,
            "NORMAL": 28,
            "TEXCOORD_0": 29
          },
          "indices": 4,
          "material": 2
        }
      ]
    },
    {
      "name": "Cube.008",
      "primitives": [
        {
          "attributes": {
            "POSITION": 30,
            "NORMAL": 31,
            "TEXCOORD_0": 32
          },
          "indices": 33,
          "material": 2
        }
      ]
    },
    {
      "name": "Cylinder",
      "primitives": [
        {
          "attributes": {
            "POSITION": 34,
            "NORMAL": 35,
            "TEXCOORD_0": 36,
            "TEXCOORD_1": 37
          },
          "indices": 38,
          "material": 3
        }
      ]
    },
    {
      "name": "Mai_HinhThuyen_Mesh_Triangulated",
      "primitives": [
        {
          "attributes": {
            "POSITION": 39,
            "NORMAL": 40,
            "TEXCOORD_0": 41
          },
          "indices": 42,
          "material": 4
        }
      ]
    },
    {
      "name": "Cube.018",
      "primitives": [
        {
          "attributes": {
            "POSITION": 43,
            "NORMAL": 44,
            "TEXCOORD_0": 45,
            "TEXCOORD_1": 46
          },
          "indices": 4,
          "material": 5
        }
      ]
    },
    {
      "name": "LT_Vach_Do_m",
      "primitives": [
        {
          "attributes": {
            "POSITION": 47,
            "NORMAL": 48,
            "TEXCOORD_0": 49,
            "TEXCOORD_1": 50
          },
          "indices": 51,
          "material": 6
        }
      ]
    },
    {
      "name": "LT_Vach_Xam_P_m",
      "primitives": [
        {
          "attributes": {
            "POSITION": 52,
            "NORMAL": 53,
            "TEXCOORD_0": 54,
            "TEXCOORD_1": 55
          },
          "indices": 56,
          "material": 7
        }
      ]
    },
    {
      "name": "LT_Vien_T_m",
      "primitives": [
        {
          "attributes": {
            "POSITION": 57,
            "NORMAL": 58,
            "TEXCOORD_0": 59,
            "TEXCOORD_1": 60
          },
          "indices": 51,
          "material": 3
        }
      ]
    },
    {
      "name": "LT_Vien_P_m",
      "primitives": [
        {
          "attributes": {
            "POSITION": 61,
            "NORMAL": 62,
            "TEXCOORD_0": 63,
            "TEXCOORD_1": 64
          },
          "indices": 51,
          "material": 8
        }
      ]
    },
    {
      "name": "LT_Vach_Xam_P_m.001",
      "primitives": [
        {
          "attributes": {
            "POSITION": 65,
            "NORMAL": 66,
            "TEXCOORD_0": 67,
            "TEXCOORD_1": 68
          },
          "indices": 69,
          "material": 9
        }
      ]
    },
    {
      "name": "LT_Text_Line1_curve",
      "primitives": [
        {
          "attributes": {
            "POSITION": 70,
            "NORMAL": 71,
            "TEXCOORD_0": 72
          },
          "indices": 73,
          "material": 10
        }
      ]
    },
    {
      "name": "LT_Text_Line2_curve",
      "primitives": [
        {
          "attributes": {
            "POSITION": 74,
            "NORMAL": 75,
            "TEXCOORD_0": 76
          },
          "indices": 77,
          "material": 10
        }
      ]
    },
    {
      "name": "LT_Text_Line3_curve",
      "primitives": [
        {
          "attributes": {
            "POSITION": 78,
            "NORMAL": 79,
            "TEXCOORD_0": 80
          },
          "indices": 81,
          "material": 10
        }
      ]
    },
    {
      "name": "Cube.160",
      "primitives": [
        {
          "attributes": {
            "POSITION": 82,
            "NORMAL": 83,
            "TEXCOORD_0": 84
          },
          "indices": 4,
          "material": 11
        }
      ]
    },
    {
      "name": "Cube.161",
      "primitives": [
        {
          "attributes": {
            "POSITION": 85,
            "NORMAL": 86,
            "TEXCOORD_0": 87
          },
          "indices": 4,
          "material": 12
        }
      ]
    }
  ],
  "textures": [
    {
      "sampler": 0,
      "source": 0
    },
    {
      "sampler": 0,
      "source": 1
    },
    {
      "sampler": 0,
      "source": 2
    },
    {
      "sampler": 0,
      "source": 3
    },
    {
      "sampler": 0,
      "source": 4
    },
    {
      "sampler": 0,
      "source": 5
    },
    {
      "sampler": 0,
      "source": 6
    },
    {
      "sampler": 0,
      "source": 7
    },
    {
      "sampler": 0,
      "source": 8
    },
    {
      "sampler": 0,
      "source": 9
    },
    {
      "sampler": 0,
      "source": 10
    },
    {
      "sampler": 0,
      "source": 11
    },
    {
      "sampler": 0,
      "source": 12
    },
    {
      "sampler": 0,
      "source": 13
    },
    {
      "sampler": 0,
      "source": 14
    },
    {
      "sampler": 0,
      "source": 15
    },
    {
      "sampler": 0,
      "source": 16
    },
    {
      "sampler": 0,
      "source": 17
    },
    {
      "sampler": 0,
      "source": 18
    },
    {
      "sampler": 0,
      "source": 13
    },
    {
      "sampler": 0,
      "source": 14
    },
    {
      "sampler": 0,
      "source": 15
    }
  ],
  "images": [
    {
      "mimeType": "image/jpeg",
      "name": "bump_reticular_05k",
      "uri": "bump_reticular_05k.jpg"
    },
    {
      "mimeType": "image/jpeg",
      "name": "wood-168_diffuse-1",
      "uri": "wood-168_diffuse-1.jpg"
    },
    {
      "mimeType": "image/png",
      "name": "wood-168_roughness",
      "uri": "wood-168_roughness.jpg"
    },
    {
      "mimeType": "image/jpeg",
      "name": "wood07_specular",
      "uri": "wood07_specular.jpg"
    },
    {
      "mimeType": "image/jpeg",
      "name": "wood07_normal_opengl",
      "uri": "wood07_normal_opengl.jpg"
    },
    {
      "mimeType": "image/jpeg",
      "name": "wood07_diffuse",
      "uri": "wood07_diffuse.jpg"
    },
    {
      "mimeType": "image/png",
      "name": "wood07_roughness",
      "uri": "wood07_roughness.jpg"
    },
    {
      "mimeType": "image/jpeg",
      "name": "fabric_31_normal",
      "uri": "fabric_31_normal.jpg"
    },
    {
      "mimeType": "image/jpeg",
      "name": "fabric_31_color",
      "uri": "fabric_31_color.jpg"
    },
    {
      "mimeType": "image/png",
      "name": "fabric_31_roughness",
      "uri": "fabric_31_roughness.jpg"
    },
    {
      "mimeType": "image/jpeg",
      "name": "fabric_43_normal",
      "uri": "fabric_43_normal.jpg"
    },
    {
      "mimeType": "image/jpeg",
      "name": "fabric_43_color",
      "uri": "fabric_43_color.jpg"
    },
    {
      "mimeType": "image/png",
      "name": "fabric_43_roughness",
      "uri": "fabric_43_roughness.jpg"
    },
    {
      "mimeType": "image/jpeg",
      "name": "stone_wall_normal",
      "uri": "stone_wall_normal.jpg"
    },
    {
      "mimeType": "image/jpeg",
      "name": "stone_wall_diffuse",
      "uri": "stone_wall_diffuse.jpg"
    },
    {
      "mimeType": "image/png",
      "name": "stone_wall_roughness",
      "uri": "stone_wall_roughness.jpg"
    },
    {
      "mimeType": "image/jpeg",
      "name": "wood03_normal_opengl",
      "uri": "wood03_normal_opengl.jpg"
    },
    {
      "mimeType": "image/jpeg",
      "name": "wood03_diffuse",
      "uri": "wood03_diffuse.jpg"
    },
    {
      "mimeType": "image/png",
      "name": "wood03_roughness",
      "uri": "wood03_roughness.jpg"
    }
  ],
  "accessors": [
    {
      "bufferView": 0,
      "componentType": 5126,
      "count": 24,
      "max": [
        25,
        0.30000001192092896,
        0
      ],
      "min": [
        0,
        0,
        -40
      ],
      "type": "VEC3"
    },
    {
      "bufferView": 1,
      "componentType": 5126,
      "count": 24,
      "type": "VEC3"
    },
    {
      "bufferView": 2,
      "componentType": 5126,
      "count": 24,
      "type": "VEC2"
    },
    {
      "bufferView": 3,
      "componentType": 5126,
      "count": 24,
      "type": "VEC2"
    },
    {
      "bufferView": 4,
      "componentType": 5123,
      "count": 36,
      "type": "SCALAR"
    },
    {
      "bufferView": 5,
      "componentType": 5126,
      "count": 4,
      "max": [
        30,
        -0.009999999776482582,
        5
      ],
      "min": [
        -5,
        -0.009999999776482582,
        -45
      ],
      "type": "VEC3"
    },
    {
      "bufferView": 6,
      "componentType": 5126,
      "count": 4,
      "type": "VEC3"
    },
    {
      "bufferView": 7,
      "componentType": 5126,
      "count": 4,
      "type": "VEC2"
    },
    {
      "bufferView": 8,
      "componentType": 5123,
      "count": 6,
      "type": "SCALAR"
    },
    {
      "bufferView": 9,
      "componentType": 5126,
      "count": 24,
      "max": [
        0,
        5.300000190734863,
        0
      ],
      "min": [
        -0.25,
        0.2999999523162842,
        -40
      ],
      "type": "VEC3"
    },
    {
      "bufferView": 10,
      "componentType": 5126,
      "count": 24,
      "type": "VEC3"
    },
    {
      "bufferView": 11,
      "componentType": 5126,
      "count": 24,
      "type": "VEC2"
    },
    {
      "bufferView": 12,
      "componentType": 5126,
      "count": 24,
      "max": [
        25.25,
        5.300000190734863,
        0
      ],
      "min": [
        25,
        0.2999999523162842,
        -40
      ],
      "type": "VEC3"
    },
    {
      "bufferView": 13,
      "componentType": 5126,
      "count": 24,
      "type": "VEC3"
    },
    {
      "bufferView": 14,
      "componentType": 5126,
      "count": 24,
      "type": "VEC2"
    },
    {
      "bufferView": 15,
      "componentType": 5126,
      "count": 24,
      "max": [
        10,
        5.300000190734863,
        0.25
      ],
      "min": [
        0,
        0.2999999523162842,
        0
      ],
      "type": "VEC3"
    },
    {
      "bufferView": 16,
      "componentType": 5126,
      "count": 24,
      "type": "VEC3"
    },
    {
      "bufferView": 17,
      "componentType": 5126,
      "count": 24,
      "type": "VEC2"
    },
    {
      "bufferView": 18,
      "componentType": 5126,
      "count": 24,
      "max": [
        25,
        5.300000190734863,
        0.25
      ],
      "min": [
        15,
        0.2999999523162842,
        0
      ],
      "type": "VEC3"
    },
    {
      "bufferView": 19,
      "componentType": 5126,
      "count": 24,
      "type": "VEC3"
    },
    {
      "bufferView": 20,
      "componentType": 5126,
      "count": 24,
      "type": "VEC2"
    },
    {
      "bufferView": 21,
      "componentType": 5126,
      "count": 24,
      "max": [
        15,
        5.300000190734863,
        0.25
      ],
      "min": [
        10,
        3.8000001907348633,
        0
      ],
      "type": "VEC3"
    },
    {
      "bufferView": 22,
      "componentType": 5126,
      "count": 24,
      "type": "VEC3"
    },
    {
      "bufferView": 23,
      "componentType": 5126,
      "count": 24,
      "type": "VEC2"
    },
    {
      "bufferView": 24,
      "componentType": 5126,
      "count": 24,
      "max": [
        10.5,
        5.300000190734863,
        -40
      ],
      "min": [
        0,
        0.2999999523162842,
        -40.25
      ],
      "type": "VEC3"
    },
    {
      "bufferView": 25,
      "componentType": 5126,
      "count": 24,
      "type": "VEC3"
    },
    {
      "bufferView": 26,
      "componentType": 5126,
      "count": 24,
      "type": "VEC2"
    },
    {
      "bufferView": 27,
      "componentType": 5126,
      "count": 24,
      "max": [
        25,
        5.300000190734863,
        -40
      ],
      "min": [
        14.5,
        0.2999999523162842,
        -40.25
      ],
      "type": "VEC3"
    },
    {
      "bufferView": 28,
      "componentType": 5126,
      "count": 24,
      "type": "VEC3"
    },
    {
      "bufferView": 29,
      "componentType": 5126,
      "count": 24,
      "type": "VEC2"
    },
    {
      "bufferView": 30,
      "componentType": 5126,
      "count": 24,
      "max": [
        14.5,
        5.300000190734863,
        -40
      ],
      "min": [
        10.5,
        3.8000001907348633,
        -40.25
      ],
      "type": "VEC3"
    },
    {
      "bufferView": 31,
      "componentType": 5126,
      "count": 24,
      "type": "VEC3"
    },
    {
      "bufferView": 32,
      "componentType": 5126,
      "count": 24,
      "type": "VEC2"
    },
    {
      "bufferView": 33,
      "componentType": 5123,
      "count": 36,
      "type": "SCALAR"
    },
    {
      "bufferView": 34,
      "componentType": 5126,
      "count": 192,
      "max": [
        0.30000001192092896,
        3.75,
        0.30000001192092896
      ],
      "min": [
        -0.30000001192092896,
        -3.75,
        -0.30000001192092896
      ],
      "type": "VEC3"
    },
    {
      "bufferView": 35,
      "componentType": 5126,
      "count": 192,
      "type": "VEC3"
    },
    {
      "bufferView": 36,
      "componentType": 5126,
      "count": 192,
      "type": "VEC2"
    },
    {
      "bufferView": 37,
      "componentType": 5126,
      "count": 192,
      "type": "VEC2"
    },
    {
      "bufferView": 38,
      "componentType": 5123,
      "count": 372,
      "type": "SCALAR"
    },
    {
      "bufferView": 39,
      "componentType": 5126,
      "count": 116,
      "max": [
        25,
        7.800000190734863,
        0
      ],
      "min": [
        0,
        5.100000381469727,
        -40.012908935546875
      ],
      "type": "VEC3"
    },
    {
      "bufferView": 40,
      "componentType": 5126,
      "count": 116,
      "type": "VEC3"
    },
    {
      "bufferView": 41,
      "componentType": 5126,
      "count": 116,
      "type": "VEC2"
    },
    {
      "bufferView": 42,
      "componentType": 5123,
      "count": 156,
      "type": "SCALAR"
    },
    {
      "bufferView": 43,
      "componentType": 5126,
      "count": 24,
      "max": [
        3.5,
        0.009999999776482582,
        3
      ],
      "min": [
        -3.5,
        -0.009999999776482582,
        -3
      ],
      "type": "VEC3"
    },
    {
      "bufferView": 44,
      "componentType": 5126,
      "count": 24,
      "type": "VEC3"
    },
    {
      "bufferView": 45,
      "componentType": 5126,
      "count": 24,
      "type": "VEC2"
    },
    {
      "bufferView": 46,
      "componentType": 5126,
      "count": 24,
      "type": "VEC2"
    },
    {
      "bufferView": 47,
      "componentType": 5126,
      "count": 24,
      "max": [
        5.099999904632568,
        4.5,
        0.05999999865889549
      ],
      "min": [
        -5.099999904632568,
        0,
        -0.05999999865889549
      ],
      "type": "VEC3"
    },
    {
      "bufferView": 48,
      "componentType": 5126,
      "count": 24,
      "type": "VEC3"
    },
    {
      "bufferView": 49,
      "componentType": 5126,
      "count": 24,
      "type": "VEC2"
    },
    {
      "bufferView": 50,
      "componentType": 5126,
      "count": 24,
      "type": "VEC2"
    },
    {
      "bufferView": 51,
      "componentType": 5123,
      "count": 36,
      "type": "SCALAR"
    },
    {
      "bufferView": 52,
      "componentType": 5126,
      "count": 24,
      "max": [
        4,
        4.5,
        0.10000000149011612
      ],
      "min": [
        0.8803762793540955,
        0,
        -0.11381742358207703
      ],
      "type": "VEC3"
    },
    {
      "bufferView": 53,
      "componentType": 5126,
      "count": 24,
      "type": "VEC3"
    },
    {
      "bufferView": 54,
      "componentType": 5126,
      "count": 24,
      "type": "VEC2"
    },
    {
      "bufferView": 55,
      "componentType": 5126,
      "count": 24,
      "type": "VEC2"
    },
    {
      "bufferView": 56,
      "componentType": 5123,
      "count": 36,
      "type": "SCALAR"
    },
    {
      "bufferView": 57,
      "componentType": 5126,
      "count": 24,
      "max": [
        -0.8899999856948853,
        4.5,
        0.10000000149011612
      ],
      "min": [
        -1.8200000524520874,
        0,
        0.05999999865889549
      ],
      "type": "VEC3"
    },
    {
      "bufferView": 58,
      "componentType": 5126,
      "count": 24,
      "type": "VEC3"
    },
    {
      "bufferView": 59,
      "componentType": 5126,
      "count": 24,
      "type": "VEC2"
    },
    {
      "bufferView": 60,
      "componentType": 5126,
      "count": 24,
      "type": "VEC2"
    },
    {
      "bufferView": 61,
      "componentType": 5126,
      "count": 24,
      "max": [
        1.8200000524520874,
        4.5,
        0.10000000149011612
      ],
      "min": [
        0.8899999856948853,
        0,
        0.05999999865889549
      ],
      "type": "VEC3"
    },
    {
      "bufferView": 62,
      "componentType": 5126,
      "count": 24,
      "type": "VEC3"
    },
    {
      "bufferView": 63,
      "componentType": 5126,
      "count": 24,
      "type": "VEC2"
    },
    {
      "bufferView": 64,
      "componentType": 5126,
      "count": 24,
      "type": "VEC2"
    },
    {
      "bufferView": 65,
      "componentType": 5126,
      "count": 24,
      "max": [
        -0.8951604962348938,
        4.5,
        0.11288729310035706
      ],
      "min": [
        -4,
        0,
        -0.10000000149011612
      ],
      "type": "VEC3"
    },
    {
      "bufferView": 66,
      "componentType": 5126,
      "count": 24,
      "type": "VEC3"
    },
    {
      "bufferView": 67,
      "componentType": 5126,
      "count": 24,
      "type": "VEC2"
    },
    {
      "bufferView": 68,
      "componentType": 5126,
      "count": 24,
      "type": "VEC2"
    },
    {
      "bufferView": 69,
      "componentType": 5123,
      "count": 36,
      "type": "SCALAR"
    },
    {
      "bufferView": 70,
      "componentType": 5126,
      "count": 14712,
      "max": [
        0.7178115844726562,
        0.02800000086426735,
        0.07665298134088516
      ],
      "min": [
        -0.7110059261322021,
        -0.02800000086426735,
        -0.11749221384525299
      ],
      "type": "VEC3"
    },
    {
      "bufferView": 71,
      "componentType": 5126,
      "count": 14712,
      "type": "VEC3"
    },
    {
      "bufferView": 72,
      "componentType": 5126,
      "count": 14712,
      "type": "VEC2"
    },
    {
      "bufferView": 73,
      "componentType": 5123,
      "count": 69804,
      "type": "SCALAR"
    },
    {
      "bufferView": 74,
      "componentType": 5126,
      "count": 8420,
      "max": [
        1.8733313083648682,
        0.03799999877810478,
        0.15924283862113953
      ],
      "min": [
        -1.9030742645263672,
        -0.03799999877810478,
        -0.24512159824371338
      ],
      "type": "VEC3"
    },
    {
      "bufferView": 75,
      "componentType": 5126,
      "count": 8420,
      "type": "VEC3"
    },
    {
      "bufferView": 76,
      "componentType": 5126,
      "count": 8420,
      "type": "VEC2"
    },
    {
      "bufferView": 77,
      "componentType": 5123,
      "count": 39552,
      "type": "SCALAR"
    },
    {
      "bufferView": 78,
      "componentType": 5126,
      "count": 4644,
      "max": [
        0.8694021701812744,
        0.02800000086426735,
        0.074249766767025
      ],
      "min": [
        -0.8644797205924988,
        -0.02800000086426735,
        -0.11390608549118042
      ],
      "type": "VEC3"
    },
    {
      "bufferView": 79,
      "componentType": 5126,
      "count": 4644,
      "type": "VEC3"
    },
    {
      "bufferView": 80,
      "componentType": 5126,
      "count": 4644,
      "type": "VEC2"
    },
    {
      "bufferView": 81,
      "componentType": 5123,
      "count": 21456,
      "type": "SCALAR"
    },
    {
      "bufferView": 82,
      "componentType": 5126,
      "count": 24,
      "max": [
        0.600001335144043,
        0.007500171661376953,
        0.0025005340576171875
      ],
      "min": [
        -0.5999994277954102,
        -0.00749969482421875,
        -0.002498626708984375
      ],
      "type": "VEC3"
    },
    {
      "bufferView": 83,
      "componentType": 5126,
      "count": 24,
      "type": "VEC3"
    },
    {
      "bufferView": 84,
      "componentType": 5126,
      "count": 24,
      "type": "VEC2"
    },
    {
      "bufferView": 85,
      "componentType": 5126,
      "count": 24,
      "max": [
        13.100000381469727,
        3.557499885559082,
        -9.817500114440918
      ],
      "min": [
        11.899999618530273,
        3.5425000190734863,
        -9.82249927520752
      ],
      "type": "VEC3"
    },
    {
      "bufferView": 86,
      "componentType": 5126,
      "count": 24,
      "type": "VEC3"
    },
    {
      "bufferView": 87,
      "componentType": 5126,
      "count": 24,
      "type": "VEC2"
    }
  ],
  "bufferViews": [
    {
      "buffer": 0,
      "byteLength": 288,
      "byteOffset": 0,
      "target": 34962
    },
    {
      "buffer": 0,
      "byteLength": 288,
      "byteOffset": 288,
      "target": 34962
    },
    {
      "buffer": 0,
      "byteLength": 192,
      "byteOffset": 576,
      "target": 34962
    },
    {
      "buffer": 0,
      "byteLength": 192,
      "byteOffset": 768,
      "target": 34962
    },
    {
      "buffer": 0,
      "byteLength": 72,
      "byteOffset": 960,
      "target": 34963
    },
    {
      "buffer": 0,
      "byteLength": 48,
      "byteOffset": 1032,
      "target": 34962
    },
    {
      "buffer": 0,
      "byteLength": 48,
      "byteOffset": 1080,
      "target": 34962
    },
    {
      "buffer": 0,
      "byteLength": 32,
      "byteOffset": 1128,
      "target": 34962
    },
    {
      "buffer": 0,
      "byteLength": 12,
      "byteOffset": 1160,
      "target": 34963
    },
    {
      "buffer": 0,
      "byteLength": 288,
      "byteOffset": 1172,
      "target": 34962
    },
    {
      "buffer": 0,
      "byteLength": 288,
      "byteOffset": 1460,
      "target": 34962
    },
    {
      "buffer": 0,
      "byteLength": 192,
      "byteOffset": 1748,
      "target": 34962
    },
    {
      "buffer": 0,
      "byteLength": 288,
      "byteOffset": 1940,
      "target": 34962
    },
    {
      "buffer": 0,
      "byteLength": 288,
      "byteOffset": 2228,
      "target": 34962
    },
    {
      "buffer": 0,
      "byteLength": 192,
      "byteOffset": 2516,
      "target": 34962
    },
    {
      "buffer": 0,
      "byteLength": 288,
      "byteOffset": 2708,
      "target": 34962
    },
    {
      "buffer": 0,
      "byteLength": 288,
      "byteOffset": 2996,
      "target": 34962
    },
    {
      "buffer": 0,
      "byteLength": 192,
      "byteOffset": 3284,
      "target": 34962
    },
    {
      "buffer": 0,
      "byteLength": 288,
      "byteOffset": 3476,
      "target": 34962
    },
    {
      "buffer": 0,
      "byteLength": 288,
      "byteOffset": 3764,
      "target": 34962
    },
    {
      "buffer": 0,
      "byteLength": 192,
      "byteOffset": 4052,
      "target": 34962
    },
    {
      "buffer": 0,
      "byteLength": 288,
      "byteOffset": 4244,
      "target": 34962
    },
    {
      "buffer": 0,
      "byteLength": 288,
      "byteOffset": 4532,
      "target": 34962
    },
    {
      "buffer": 0,
      "byteLength": 192,
      "byteOffset": 4820,
      "target": 34962
    },
    {
      "buffer": 0,
      "byteLength": 288,
      "byteOffset": 5012,
      "target": 34962
    },
    {
      "buffer": 0,
      "byteLength": 288,
      "byteOffset": 5300,
      "target": 34962
    },
    {
      "buffer": 0,
      "byteLength": 192,
      "byteOffset": 5588,
      "target": 34962
    },
    {
      "buffer": 0,
      "byteLength": 288,
      "byteOffset": 5780,
      "target": 34962
    },
    {
      "buffer": 0,
      "byteLength": 288,
      "byteOffset": 6068,
      "target": 34962
    },
    {
      "buffer": 0,
      "byteLength": 192,
      "byteOffset": 6356,
      "target": 34962
    },
    {
      "buffer": 0,
      "byteLength": 288,
      "byteOffset": 6548,
      "target": 34962
    },
    {
      "buffer": 0,
      "byteLength": 288,
      "byteOffset": 6836,
      "target": 34962
    },
    {
      "buffer": 0,
      "byteLength": 192,
      "byteOffset": 7124,
      "target": 34962
    },
    {
      "buffer": 0,
      "byteLength": 72,
      "byteOffset": 7316,
      "target": 34963
    },
    {
      "buffer": 0,
      "byteLength": 2304,
      "byteOffset": 7388,
      "target": 34962
    },
    {
      "buffer": 0,
      "byteLength": 2304,
      "byteOffset": 9692,
      "target": 34962
    },
    {
      "buffer": 0,
      "byteLength": 1536,
      "byteOffset": 11996,
      "target": 34962
    },
    {
      "buffer": 0,
      "byteLength": 1536,
      "byteOffset": 13532,
      "target": 34962
    },
    {
      "buffer": 0,
      "byteLength": 744,
      "byteOffset": 15068,
      "target": 34963
    },
    {
      "buffer": 0,
      "byteLength": 1392,
      "byteOffset": 15812,
      "target": 34962
    },
    {
      "buffer": 0,
      "byteLength": 1392,
      "byteOffset": 17204,
      "target": 34962
    },
    {
      "buffer": 0,
      "byteLength": 928,
      "byteOffset": 18596,
      "target": 34962
    },
    {
      "buffer": 0,
      "byteLength": 312,
      "byteOffset": 19524,
      "target": 34963
    },
    {
      "buffer": 0,
      "byteLength": 288,
      "byteOffset": 19836,
      "target": 34962
    },
    {
      "buffer": 0,
      "byteLength": 288,
      "byteOffset": 20124,
      "target": 34962
    },
    {
      "buffer": 0,
      "byteLength": 192,
      "byteOffset": 20412,
      "target": 34962
    },
    {
      "buffer": 0,
      "byteLength": 192,
      "byteOffset": 20604,
      "target": 34962
    },
    {
      "buffer": 0,
      "byteLength": 288,
      "byteOffset": 20796,
      "target": 34962
    },
    {
      "buffer": 0,
      "byteLength": 288,
      "byteOffset": 21084,
      "target": 34962
    },
    {
      "buffer": 0,
      "byteLength": 192,
      "byteOffset": 21372,
      "target": 34962
    },
    {
      "buffer": 0,
      "byteLength": 192,
      "byteOffset": 21564,
      "target": 34962
    },
    {
      "buffer": 0,
      "byteLength": 72,
      "byteOffset": 21756,
      "target": 34963
    },
    {
      "buffer": 0,
      "byteLength": 288,
      "byteOffset": 21828,
      "target": 34962
    },
    {
      "buffer": 0,
      "byteLength": 288,
      "byteOffset": 22116,
      "target": 34962
    },
    {
      "buffer": 0,
      "byteLength": 192,
      "byteOffset": 22404,
      "target": 34962
    },
    {
      "buffer": 0,
      "byteLength": 192,
      "byteOffset": 22596,
      "target": 34962
    },
    {
      "buffer": 0,
      "byteLength": 72,
      "byteOffset": 22788,
      "target": 34963
    },
    {
      "buffer": 0,
      "byteLength": 288,
      "byteOffset": 22860,
      "target": 34962
    },
    {
      "buffer": 0,
      "byteLength": 288,
      "byteOffset": 23148,
      "target": 34962
    },
    {
      "buffer": 0,
      "byteLength": 192,
      "byteOffset": 23436,
      "target": 34962
    },
    {
      "buffer": 0,
      "byteLength": 192,
      "byteOffset": 23628,
      "target": 34962
    },
    {
      "buffer": 0,
      "byteLength": 288,
      "byteOffset": 23820,
      "target": 34962
    },
    {
      "buffer": 0,
      "byteLength": 288,
      "byteOffset": 24108,
      "target": 34962
    },
    {
      "buffer": 0,
      "byteLength": 192,
      "byteOffset": 24396,
      "target": 34962
    },
    {
      "buffer": 0,
      "byteLength": 192,
      "byteOffset": 24588,
      "target": 34962
    },
    {
      "buffer": 0,
      "byteLength": 288,
      "byteOffset": 24780,
      "target": 34962
    },
    {
      "buffer": 0,
      "byteLength": 288,
      "byteOffset": 25068,
      "target": 34962
    },
    {
      "buffer": 0,
      "byteLength": 192,
      "byteOffset": 25356,
      "target": 34962
    },
    {
      "buffer": 0,
      "byteLength": 192,
      "byteOffset": 25548,
      "target": 34962
    },
    {
      "buffer": 0,
      "byteLength": 72,
      "byteOffset": 25740,
      "target": 34963
    },
    {
      "buffer": 0,
      "byteLength": 176544,
      "byteOffset": 25812,
      "target": 34962
    },
    {
      "buffer": 0,
      "byteLength": 176544,
      "byteOffset": 202356,
      "target": 34962
    },
    {
      "buffer": 0,
      "byteLength": 117696,
      "byteOffset": 378900,
      "target": 34962
    },
    {
      "buffer": 0,
      "byteLength": 139608,
      "byteOffset": 496596,
      "target": 34963
    },
    {
      "buffer": 0,
      "byteLength": 101040,
      "byteOffset": 636204,
      "target": 34962
    },
    {
      "buffer": 0,
      "byteLength": 101040,
      "byteOffset": 737244,
      "target": 34962
    },
    {
      "buffer": 0,
      "byteLength": 67360,
      "byteOffset": 838284,
      "target": 34962
    },
    {
      "buffer": 0,
      "byteLength": 79104,
      "byteOffset": 905644,
      "target": 34963
    },
    {
      "buffer": 0,
      "byteLength": 55728,
      "byteOffset": 984748,
      "target": 34962
    },
    {
      "buffer": 0,
      "byteLength": 55728,
      "byteOffset": 1040476,
      "target": 34962
    },
    {
      "buffer": 0,
      "byteLength": 37152,
      "byteOffset": 1096204,
      "target": 34962
    },
    {
      "buffer": 0,
      "byteLength": 42912,
      "byteOffset": 1133356,
      "target": 34963
    },
    {
      "buffer": 0,
      "byteLength": 288,
      "byteOffset": 1176268,
      "target": 34962
    },
    {
      "buffer": 0,
      "byteLength": 288,
      "byteOffset": 1176556,
      "target": 34962
    },
    {
      "buffer": 0,
      "byteLength": 192,
      "byteOffset": 1176844,
      "target": 34962
    },
    {
      "buffer": 0,
      "byteLength": 288,
      "byteOffset": 1177036,
      "target": 34962
    },
    {
      "buffer": 0,
      "byteLength": 288,
      "byteOffset": 1177324,
      "target": 34962
    },
    {
      "buffer": 0,
      "byteLength": 192,
      "byteOffset": 1177612,
      "target": 34962
    }
  ],
  "samplers": [
    {
      "magFilter": 9729,
      "minFilter": 9987
    }
  ],
  "buffers": [
    {
      "byteLength": 1177804,
      "uri": "phongtrungbay.bin"
    }
  ]
}